<svg xmlns="http://www.w3.org/2000/svg" viewBox="0 0 138 129" fill="currentColor"><g id="Group 10"><path id="Vector" d="M117.541 109.971C118.455 100.989 123.883 92.914 128.893 85.571C128.893 85.571 129.21 85.1535 128.99 84.9607C128.769 84.7678 128.421 85.1578 128.421 85.1578C123.343 89.9674 118.722 95.3097 115.411 101.562C105.814 53.4604 45.5073 27.3819 0.762212 37.6374C0.762212 37.6374 0.111517 37.714 0.176844 38.195C0.242173 38.676 1.01876 38.654 1.01876 38.654C24.3649 36.1606 54.1033 44.4943 69.0894 54.1794C90.545 68.0545 100.305 81.2808 111.216 100.781C107.713 94.5115 98.2231 91.7562 90.9836 94.0419C90.9836 94.0419 90.5906 94.1495 90.5926 94.3457C90.5945 94.542 90.986 94.6901 90.986 94.6901C96.4571 96.7901 100.954 100.504 105.362 104.23C108.972 106.967 112.273 110.09 115.207 113.542C115.369 113.729 115.583 113.863 115.822 113.927C116.061 113.991 116.314 113.983 116.548 113.903C116.782 113.823 116.987 113.675 117.136 113.478C117.286 113.281 117.373 113.044 117.388 112.797L117.541 109.971Z" fill="currentColor"/><path id="Vector_2" d="M41.2436 29.3401C43.2468 28.7673 45.3924 28.9727 47.2506 29.9151C47.3335 29.9594 47.3997 30.0293 47.4394 30.1145C47.4791 30.1996 47.4901 30.2953 47.4707 30.3872C47.4513 30.4792 47.4027 30.5623 47.332 30.6242C47.2613 30.6861 47.1725 30.7234 47.0788 30.7305C45.1337 30.8317 43.1841 30.6531 41.2897 30.2003C41.184 30.193 41.0846 30.1474 41.0102 30.0719C40.9358 29.9964 40.8917 29.8964 40.886 29.7906C40.8803 29.6848 40.9136 29.5805 40.9794 29.4976C41.0453 29.4146 41.1393 29.3586 41.2436 29.3401Z" fill="currentColor"/><path id="Vector_3" d="M51.1423 30.988C65.6503 32.2019 80.3359 38.7614 89.6849 50.0366C89.7406 50.0909 89.7724 50.165 89.7734 50.2428C89.7744 50.3205 89.7445 50.3955 89.6902 50.4512C89.6359 50.5069 89.5618 50.5387 89.484 50.5397C89.4063 50.5407 89.3313 50.5108 89.2756 50.4565C78.0529 41.4252 64.8229 35.584 51.0291 31.5698C50.9519 31.5548 50.8839 31.5098 50.84 31.4446C50.796 31.3794 50.7798 31.2995 50.7948 31.2223C50.8098 31.1452 50.8548 31.0771 50.92 31.0332C50.9852 30.9893 51.0651 30.973 51.1423 30.988Z" fill="currentColor"/></g></svg>