<svg xmlns="http://www.w3.org/2000/svg" viewBox="0 0 110 52" fill="currentColor"><path id="Vector" d="M6.98391 14.9857C12.0553 12.4762 17.6137 11.1024 23.2729 10.9596C28.9321 10.8168 34.5563 11.9084 39.7548 14.1586C52.4263 19.6593 58.2994 32.1606 67.7765 41.2584C75.4702 48.6134 87.4353 54.7216 98.0192 49.848C106.801 45.8253 113.22 34.4815 107.954 25.3699C107.392 24.1603 106.391 23.2086 105.156 22.707C103.92 22.2054 102.54 22.1912 101.296 22.6673C100.068 23.1897 99.0974 24.1764 98.5946 25.4125C98.0917 26.6487 98.0976 28.0342 98.6109 29.2675C99.4563 30.7551 99.7527 32.4918 99.448 34.174C99.1433 35.8562 98.2571 37.377 96.9443 38.4703C95.3831 39.9242 93.4376 40.8997 91.338 41.2816C89.2384 41.6635 87.0724 41.4358 85.0964 40.6252C73.8285 36.9082 67.8294 25.2281 60.3003 16.9698C53.243 9.16423 43.8594 3.84158 33.5446 1.7933C23.2297 -0.254966 12.5345 1.08045 3.04881 5.60104C-2.74614 8.5111 1.16389 17.8639 6.98391 14.9857Z" fill="currentColor"></path></svg>