<svg xmlns="http://www.w3.org/2000/svg" viewBox="0 0 511 167" fill="currentColor"><path d="M1.6462 44.9824C33.2487 64.2838 72.3907 76.3929 109.751 69.0086C110.179 68.9224 110.623 68.985 111.01 69.1861C111.398 69.3873 111.705 69.7148 111.88 70.1144C170.479 201.825 394.886 168.623 509.424 140.484C509.633 140.433 509.827 140.334 509.991 140.195C510.155 140.056 510.284 139.881 510.369 139.683C510.453 139.485 510.49 139.27 510.477 139.056C510.463 138.841 510.4 138.632 510.292 138.446C510.196 138.282 510.051 138.151 509.878 138.072C509.704 137.994 509.511 137.971 509.323 138.008C401.712 161.047 177.315 191.553 123.971 67.4002C123.87 67.1612 123.819 66.9038 123.822 66.6443C123.825 66.3848 123.881 66.1287 123.988 65.892C124.094 65.6552 124.248 65.443 124.44 65.2685C124.632 65.094 124.858 64.961 125.104 64.8778C143.949 58.7182 176.502 32.7453 168.761 12.5574C167.415 9.31472 165.185 6.51567 162.325 4.4796C159.464 2.44355 156.089 1.25248 152.585 1.04234C125.908 -1.1967 105.053 31.411 108.736 56.8264C108.814 57.3088 108.707 57.8027 108.438 58.2104C108.169 58.6182 107.757 58.9103 107.283 59.0289C71.8515 67.6835 35.0947 57.2468 2.5601 42.4417C2.33599 42.339 2.08356 42.3156 1.84438 42.3754C1.6052 42.4352 1.39349 42.5746 1.24409 42.7707C1.11827 42.9399 1.02856 43.133 0.980528 43.3383C0.932497 43.5435 0.927174 43.7565 0.964882 43.9639C1.00259 44.1713 1.08252 44.3687 1.19973 44.5439C1.31693 44.7191 1.4689 44.8684 1.6462 44.9824ZM121.22 51.3248C120.937 37.3879 131.2 18.9912 145.192 15.1072C146.611 14.7261 148.109 14.7467 149.517 15.1668C150.926 15.5868 152.19 16.3898 153.169 17.4862C154.148 18.5826 154.803 19.9294 155.061 21.3763C155.32 22.8232 155.171 24.3135 154.632 25.6809C149.999 37.4976 134.956 47.6784 123.971 53.0703C123.679 53.2166 123.354 53.2851 123.028 53.2695C122.702 53.2538 122.386 53.1543 122.109 52.9807C121.833 52.8072 121.606 52.5653 121.45 52.2784C121.294 51.9916 121.215 51.6694 121.22 51.3431L121.22 51.3248Z" fill="currentColor"></path></svg>