<svg xmlns="http://www.w3.org/2000/svg" viewBox="0 0 81 87" fill="currentColor"><path id="Vector" d="M0.936555 53.2296C2.45336 59.7318 5.40629 65.8116 9.5785 71.0225C13.7507 76.2333 19.0363 80.4428 25.0471 83.3421C31.1751 86.2552 37.9739 87.4636 44.7295 86.8403C51.4852 86.2169 57.9486 83.7849 63.4409 79.7995C69.8717 75.3802 74.889 69.195 77.8887 61.9887C80.8884 54.7823 81.7426 46.862 80.3487 39.1811C79.7648 37.2861 78.4672 35.6928 76.7302 34.7383C74.9933 33.7837 72.9533 33.5429 71.0421 34.0667C69.1308 34.5904 67.4982 35.8377 66.4897 37.5447C65.4811 39.2516 65.1757 41.2842 65.6382 43.2124C66.2325 47.3903 65.7353 51.651 64.1949 55.5794C62.6545 59.5079 60.1235 62.9701 56.8485 65.6288C53.7387 68.556 49.8691 70.5491 45.6814 71.3807C41.4937 72.2124 37.1567 71.849 33.1655 70.332C29.2038 68.6946 25.6512 66.2037 22.7606 63.0366C19.8699 59.8696 17.7121 56.1041 16.4406 52.008C15.1105 47.8602 14.8554 43.4423 15.6988 39.1688C16.5423 34.8953 18.4568 30.9062 21.2627 27.5759C24.4961 23.4812 28.6724 20.2312 33.4346 18.1038C38.1968 15.9763 43.4033 15.0349 48.6084 15.3598C50.627 15.3439 52.5584 14.5343 53.9858 13.1059C55.4133 11.6775 56.2223 9.74479 56.2383 7.7248C56.1917 5.71451 55.3728 3.79945 53.9519 2.37757C52.531 0.955702 50.6173 0.136357 48.6084 0.0897682C20.5303 -1.74264 -5.28945 24.7662 0.936555 53.2296Z" fill="currentColor"></path></svg>