<svg xmlns="http://www.w3.org/2000/svg" viewBox="0 0 274 219" fill="currentColor"><path d="M270.983 218.031C271.6 218.012 272.185 217.756 272.618 217.317C273.051 216.877 273.297 216.287 273.307 215.67C273.304 215.055 273.059 214.465 272.623 214.03C272.188 213.595 271.598 213.349 270.983 213.347C251.463 215.466 232.678 206.896 217.899 194.701C201.912 181.493 190.302 164.027 178.656 147.073C167.502 130.854 155.892 114.541 140.546 102.021C126.604 90.6621 109.687 82.5754 91.3945 83.1331C89.9817 83.1331 88.606 83.2726 87.156 83.412C86.9112 83.4374 86.6638 83.4056 86.4334 83.319C86.203 83.2325 85.9958 83.0937 85.8282 82.9135C85.6605 82.7332 85.5371 82.5165 85.4675 82.2804C85.3979 82.0444 85.3841 81.7954 85.4271 81.553C86.5259 73.7431 86.0551 65.7924 84.0422 58.1668C78.3165 35.5986 61.1858 16.7856 40.2256 7.17454C28.372 1.6164 15.2814 -0.77881 2.22769 0.22191C-0.728088 0.472874 -0.755982 5.12037 2.22769 4.8694C23.6619 3.01041 45.0962 11.6547 60.34 26.6196C67.9973 34.0321 73.8982 43.0645 77.61 53.0546C81.0678 62.6284 82.6386 73.5036 80.2963 83.5329C80.2284 83.8219 80.0796 84.0855 79.8672 84.2929C79.6548 84.5003 79.3878 84.6429 79.0972 84.704C67.4692 87.4274 56.6684 93.59 49.6414 103.471C48.5152 105.067 47.5086 106.745 46.6299 108.49C46.0071 109.717 46.4532 111.613 48.0148 111.901C60.3399 114.197 72.5071 107.579 79.3668 97.4753C81.0593 94.9608 82.4301 92.244 83.4473 89.3887C83.5424 89.1168 83.7092 88.8757 83.9301 88.6908C84.151 88.5059 84.4177 88.3842 84.7021 88.3384C85.7153 88.1896 86.7377 88.0502 87.7509 87.9665C95.7431 87.2256 103.802 88.14 111.425 90.6528C120.108 93.6488 128.22 98.0961 135.416 103.805C150.771 115.731 162.371 131.56 173.311 147.417C184.939 164.26 196.326 181.809 211.765 195.491C226.153 208.234 244.427 218.05 264.03 218.301C266.351 218.35 268.673 218.26 270.983 218.031ZM54.3075 105.106C59.5644 98.5027 66.6218 93.5632 74.6263 90.8852C74.9346 90.7734 75.2696 90.7586 75.5865 90.8426C75.9035 90.9267 76.1871 91.1056 76.3995 91.3554C76.6119 91.6052 76.7428 91.9139 76.7748 92.2402C76.8067 92.5665 76.7382 92.8948 76.5783 93.181C72.1632 100.71 64.3554 106.705 55.711 107.709C55.3974 107.738 55.0824 107.673 54.805 107.524C54.5276 107.375 54.3 107.148 54.1505 106.871C54.0011 106.594 53.9363 106.279 53.9642 105.965C53.9921 105.651 54.1115 105.353 54.3075 105.106Z" fill="currentColor"></path></svg>