<svg xmlns="http://www.w3.org/2000/svg" viewBox="0 0 89 89" fill="currentColor"><path d="M39.5964 7.95558C40.6653 2.59189 48.3347 2.59185 49.4036 7.9556L53.226 27.136C54.0949 31.4965 57.5035 34.9051 61.864 35.774L81.0444 39.5964C86.4081 40.6653 86.4081 48.3347 81.0444 49.4036L61.864 53.226C57.5035 54.0949 54.0949 57.5035 53.226 61.864L49.4036 81.0444C48.3347 86.4081 40.6653 86.4081 39.5964 81.0444L35.774 61.864C34.9051 57.5035 31.4965 54.0949 27.136 53.226L7.95558 49.4036C2.59189 48.3347 2.59185 40.6653 7.9556 39.5964L27.136 35.774C31.4965 34.9051 34.9051 31.4965 35.774 27.136L39.5964 7.95558Z" fill="currentColor" stroke="#0B1E59" stroke-width="6"></path></svg>