<svg xmlns="http://www.w3.org/2000/svg" viewBox="0 0 296 280" fill="currentColor"><path d="M294.256 239.674C276.285 243.159 261.603 240.548 245.138 232.618C242.357 232.48 245.348 235.6 246.059 236.527C252.666 244.538 265.601 247.488 275.953 249.158C248.046 258.23 213.799 263.773 185.729 254.403C152.993 244.196 123.59 212.902 127.737 177.03C149.997 174.135 173.697 165.872 188.629 148.26C205.704 123.787 180.784 104.188 154.705 115.641C133.554 124.933 119.086 145.62 113.547 167.808C23.0417 166.629 -17.2817 79.1263 18.454 1.33478C18.5017 1.2408 18.5298 1.13808 18.5364 1.03288C18.5431 0.927691 18.5283 0.822238 18.4928 0.722974C18.4574 0.623709 18.4021 0.532715 18.3303 0.455554C18.2585 0.378392 18.1717 0.316685 18.0752 0.2742C17.9839 0.226537 17.884 0.197554 17.7813 0.188941C17.6787 0.180328 17.5753 0.192259 17.4773 0.224039C17.3793 0.255818 17.2887 0.306806 17.2106 0.374027C17.1325 0.441247 17.0686 0.523352 17.0227 0.615542C-23.9593 80.5382 18.3437 173.127 112.009 177.64C109.356 204.297 123.076 230.532 143.672 246.791C180.216 276.382 237.07 273.834 277.582 253.552C275.696 258.042 272.164 261.668 270.263 266.134C268.041 271.364 267.96 281.793 271.104 279.239C273.325 274.272 275.924 269.483 278.877 264.914C281.782 260.242 285.209 255.057 288.327 250.529L288.94 249.682L295.051 241.03C295.152 240.896 295.211 240.735 295.221 240.567C295.23 240.399 295.19 240.232 295.105 240.088C295.02 239.943 294.894 239.826 294.743 239.753C294.592 239.679 294.423 239.652 294.256 239.674ZM146.301 138.72C166.022 114.914 196.957 126.261 173.166 147.547C160.532 157.28 145.689 163.741 129.956 166.356C133.211 156.012 138.804 146.555 146.301 138.72Z" fill="currentColor"></path><path d="M4.45884 127.097C4.54289 127.03 4.6424 126.986 4.74824 126.967C4.85408 126.949 4.96285 126.957 5.06458 126.992C5.1663 127.026 5.25771 127.086 5.33041 127.165C5.40311 127.244 5.45478 127.34 5.48067 127.445C10.3346 146.426 26.7993 162.863 43.4714 167.783C43.6216 167.825 43.75 167.923 43.8304 168.057C43.9108 168.191 43.9371 168.35 43.9039 168.503C43.8694 168.655 43.7852 168.792 43.6645 168.892C43.5438 168.992 43.3935 169.049 43.237 169.054C22.7147 169.65 6.89674 146.841 4.04602 128.242C4.01191 128.03 4.03574 127.812 4.11498 127.612C4.19421 127.412 4.32594 127.237 4.49627 127.105L4.45884 127.097Z" fill="currentColor"></path><path d="M199.317 109.794C210.737 110.96 214.617 126.549 207.35 134.659C207.302 134.715 207.237 134.753 207.165 134.768C207.093 134.782 207.018 134.772 206.953 134.739C206.888 134.705 206.835 134.651 206.805 134.584C206.774 134.517 206.767 134.442 206.785 134.371C208.744 125.266 207.149 115.847 199.109 110.396C199.045 110.357 198.997 110.298 198.972 110.228C198.946 110.158 198.946 110.082 198.97 110.011C198.994 109.941 199.042 109.881 199.105 109.842C199.168 109.802 199.243 109.785 199.317 109.794Z" fill="currentColor"></path><path d="M3.57435 120.926C2.67027 120.813 1.84126 120.365 1.24974 119.672C0.796445 119.171 0.504627 118.546 0.41236 117.876C0.32468 117.229 0.435769 116.57 0.73091 115.987C1.12846 115.195 1.76075 114.544 2.54152 114.125C3.28618 114.511 3.94403 115.046 4.47478 115.696C4.83398 116.132 5.06416 116.659 5.13927 117.218C5.21438 117.778 5.13144 118.347 4.89982 118.862C4.55308 119.607 4.10722 120.301 3.57435 120.926Z" fill="currentColor"></path><path d="M204.825 140.33C204.846 140.279 204.882 140.236 204.928 140.207C204.975 140.178 205.03 140.164 205.084 140.169C205.139 140.173 205.191 140.194 205.233 140.23C205.275 140.266 205.304 140.314 205.316 140.367C205.463 140.932 205.493 141.522 205.404 142.099C205.278 142.879 205.004 143.628 204.596 144.305C204.19 144.978 203.655 145.565 203.02 146.031C202.554 146.383 202.02 146.635 201.451 146.771C201.4 146.78 201.346 146.775 201.297 146.754C201.249 146.734 201.207 146.7 201.178 146.656C201.149 146.612 201.133 146.56 201.133 146.508C201.133 146.455 201.149 146.403 201.178 146.359C201.516 145.923 201.8 145.514 202.084 145.105C202.468 144.551 202.814 143.989 203.16 143.428C203.506 142.866 203.833 142.3 204.152 141.683C204.38 141.262 204.6 140.83 204.825 140.33Z" fill="currentColor"></path><path d="M178.396 240.892C192.126 247.655 213.169 251.371 228.023 247.313C228.056 247.3 228.093 247.3 228.126 247.313C228.159 247.327 228.185 247.353 228.199 247.385C228.213 247.418 228.213 247.455 228.199 247.488C228.186 247.521 228.16 247.547 228.127 247.561C214.463 255.184 190.062 251.059 178.259 241.117C178.236 241.096 178.221 241.068 178.216 241.037C178.212 241.006 178.218 240.974 178.234 240.948C178.251 240.921 178.276 240.901 178.305 240.891C178.335 240.88 178.367 240.881 178.396 240.892Z" fill="currentColor"></path></svg>